<svg width="190" height="117" viewBox="0 0 190 117" fill="none" xmlns="http://www.w3.org/2000/svg">
<path d="M70.88 26.338C72.878 25.744 74.282 25.447 75.092 25.447H75.254C76.28 25.447 77.387 25.744 78.575 26.338C79.817 26.878 80.654 27.499 81.086 28.201C81.626 28.957 81.896 30.145 81.896 31.765C81.896 33.385 81.599 34.789 81.005 35.977C80.573 36.841 79.844 37.867 78.818 39.055C77.846 40.189 77.198 40.756 76.874 40.756C76.604 40.756 76.469 40.216 76.469 39.136C76.469 37.84 76.685 36.247 77.117 34.357C77.441 33.061 77.603 32.116 77.603 31.522C77.603 30.658 77.171 30.118 76.307 29.902C75.875 29.794 75.497 29.74 75.173 29.74C71.501 29.74 65.696 32.737 57.758 38.731C53.816 41.701 50.981 43.618 49.253 44.482C47.579 45.292 45.608 45.778 43.34 45.94C43.124 45.94 42.827 45.967 42.449 46.021C42.071 46.021 41.801 46.021 41.639 46.021C40.343 46.021 39.155 45.67 38.075 44.968C35.861 43.456 34.754 41.404 34.754 38.812C34.754 37.84 34.97 36.841 35.402 35.815C35.834 34.789 36.698 33.628 37.994 32.332C39.29 31.036 40.667 29.983 42.125 29.173C43.637 28.309 44.69 27.877 45.284 27.877C45.878 27.877 46.418 28.174 46.904 28.768C47.228 29.2 47.39 29.578 47.39 29.902C47.39 30.874 46.607 31.684 45.041 32.332C43.691 32.872 42.341 33.871 40.991 35.329C39.695 36.733 39.047 37.84 39.047 38.65C39.047 39.568 39.182 40.243 39.452 40.675C39.722 41.053 40.262 41.404 41.072 41.728C41.558 41.944 42.152 42.052 42.854 42.052C45.23 42.052 49.361 39.865 55.247 35.491C62.159 30.415 67.37 27.364 70.88 26.338ZM121.378 15.889C123.538 14.755 125.968 14.188 128.668 14.188C129.856 14.188 131.017 14.404 132.151 14.836C134.365 15.808 135.472 17.752 135.472 20.668C135.472 23.584 134.365 26.095 132.151 28.201L130.045 30.226L130.369 26.581C130.369 26.257 130.504 24.394 130.774 20.992L130.855 18.967L128.668 18.805H128.02C126.076 18.805 123.916 19.453 121.54 20.749C119.164 22.045 115.438 24.583 110.362 28.363C106.312 31.441 103.531 33.304 102.019 33.952C100.885 34.492 100.183 34.924 99.9134 35.248C99.6434 35.572 99.4004 36.436 99.1844 37.84C98.8604 39.622 98.6984 41.215 98.6984 42.619C98.6984 46.345 99.7784 49.099 101.938 50.881C102.856 51.637 103.99 52.015 105.34 52.015C107.554 52.015 110.254 51.043 113.44 49.099C115.87 47.587 117.085 46.723 117.085 46.507C117.085 46.453 116.95 46.291 116.68 46.021C116.41 45.643 116.275 45.346 116.275 45.13C116.275 44.536 116.923 43.888 118.219 43.186C118.975 42.862 119.461 42.7 119.677 42.7C120.001 42.7 120.325 42.862 120.649 43.186C120.865 43.402 121.081 43.51 121.297 43.51C121.729 43.51 122.998 42.754 125.104 41.242C128.668 38.704 131.287 37.435 132.961 37.435C134.257 37.435 135.229 38.218 135.877 39.784C136.417 41.026 136.687 42.889 136.687 45.373C136.687 46.507 136.579 47.182 136.363 47.398H136.282L136.201 47.479C135.553 47.479 134.635 46.264 133.447 43.834C132.907 42.7 132.448 42.133 132.07 42.133C131.8 42.133 130.288 43.051 127.534 44.887C124.78 46.669 123.403 47.641 123.403 47.803C123.403 47.857 123.7 48.478 124.294 49.666C125.374 51.718 126.94 53.284 128.992 54.364L130.369 55.093L128.506 55.417C128.452 55.417 128.317 55.444 128.101 55.498C127.885 55.498 127.75 55.498 127.696 55.498C125.158 55.498 122.89 54.418 120.892 52.258L119.434 50.638L115.465 52.906C111.253 55.336 107.878 56.551 105.34 56.551C104.152 56.551 102.91 56.254 101.614 55.66C98.9684 54.364 96.9164 52.177 95.4584 49.099C94.8104 47.587 94.4864 45.859 94.4864 43.915V42.376C94.5404 41.404 94.5944 40.243 94.6484 38.893C94.7024 37.543 94.7294 36.706 94.7294 36.382C94.7294 36.058 94.6214 35.842 94.4054 35.734C94.2434 35.572 93.7844 35.41 93.0284 35.248C91.4624 34.924 90.1124 34.06 88.9784 32.656C87.8444 31.198 87.2774 29.632 87.2774 27.958C87.2774 26.176 88.0604 24.313 89.6264 22.369C91.1924 20.371 93.1904 18.751 95.6204 17.509C96.9164 16.861 97.7804 16.537 98.2124 16.537C98.6984 16.537 99.1844 16.78 99.6704 17.266C100.156 17.752 100.399 18.211 100.399 18.643C100.399 19.291 99.9944 19.858 99.1844 20.344C94.0004 23.476 91.4084 25.987 91.4084 27.877C91.4084 28.525 91.7054 29.227 92.2994 29.983C92.8934 30.739 94.0004 31.117 95.6204 31.117C98.4284 31.063 101.911 29.416 106.069 26.176C108.337 24.34 111.172 22.288 114.574 20.02C118.03 17.698 120.298 16.321 121.378 15.889ZM113.014 10.381C112.096 9.463 111.637 8.545 111.637 7.627C111.637 6.709 112.096 5.818 113.014 4.954C113.878 4.036 114.769 3.577 115.687 3.577C116.605 3.577 117.523 4.036 118.441 4.954C119.305 5.818 119.737 6.709 119.737 7.627C119.737 8.545 119.305 9.463 118.441 10.381C117.523 11.245 116.605 11.677 115.687 11.677C114.769 11.677 113.878 11.245 113.014 10.381Z" fill="#7F36DB"/>
<path d="M45.5713 101V83.9331H17.4541V101H6.40381V60.0752H17.4541V74.9678H45.5713V60.0752H56.6216V101H45.5713ZM104.129 101V96.979C102.719 97.7534 101.2 98.4385 99.5718 99.0342C97.9634 99.6299 96.2855 100.136 94.5381 100.553C92.7907 100.97 90.9837 101.278 89.1172 101.477C87.2705 101.695 85.404 101.804 83.5176 101.804C81.3135 101.804 79.1789 101.596 77.1138 101.179C75.0685 100.762 73.2516 100.087 71.6631 99.1533C70.0745 98.2201 68.7938 96.9989 67.8208 95.4897C66.8677 93.9806 66.3911 92.134 66.3911 89.9497C66.3911 87.1896 67.1457 84.8962 68.6548 83.0693C70.1639 81.2227 72.4673 79.7135 75.5649 78.542C78.6626 77.3704 82.5744 76.467 87.3003 75.8315C92.0461 75.1961 97.6556 74.6997 104.129 74.3423V73.4785C104.129 72.8034 103.95 72.1382 103.593 71.4829C103.235 70.8078 102.58 70.222 101.627 69.7256C100.694 69.2093 99.403 68.7923 97.7549 68.4746C96.1266 68.1569 94.0417 67.998 91.5 67.998C89.4945 67.998 87.5088 68.1073 85.543 68.3257C83.597 68.5243 81.7106 68.8022 79.8838 69.1597C78.0768 69.5171 76.3592 69.9341 74.731 70.4106C73.1027 70.8872 71.6234 71.3836 70.293 71.8999V62.0708C71.6829 61.7134 73.2417 61.3659 74.9692 61.0283C76.6968 60.6908 78.4938 60.4028 80.3604 60.1646C82.2269 59.9064 84.1133 59.7078 86.0195 59.5688C87.9258 59.41 89.7526 59.3306 91.5 59.3306C94.9352 59.3306 98.1024 59.6185 101.001 60.1943C103.901 60.7503 106.393 61.624 108.478 62.8154C110.582 64.0068 112.221 65.516 113.392 67.3428C114.583 69.1696 115.179 71.3439 115.179 73.8657V101H104.129ZM104.129 82.3247C99.8796 82.4836 96.2656 82.7119 93.2871 83.0098C90.3285 83.3076 87.8662 83.6551 85.9004 84.0522C83.9346 84.4494 82.3857 84.8763 81.2539 85.333C80.1419 85.7897 79.3079 86.2563 78.752 86.7329C78.196 87.2095 77.8485 87.686 77.7095 88.1626C77.5903 88.6392 77.5308 89.076 77.5308 89.4731C77.5308 89.9497 77.6598 90.4163 77.918 90.873C78.1761 91.3099 78.6229 91.6971 79.2583 92.0347C79.9136 92.3722 80.7773 92.6403 81.8496 92.8389C82.9219 93.0374 84.2721 93.1367 85.9004 93.1367C87.7074 93.1367 89.4746 92.9977 91.2021 92.7197C92.9297 92.4417 94.5679 92.0645 96.1167 91.5879C97.6655 91.0915 99.1151 90.5156 100.465 89.8604C101.835 89.1852 103.057 88.4704 104.129 87.7158V82.3247ZM165.457 69.3384C165.159 69.2391 164.722 69.11 164.146 68.9512C163.59 68.7725 162.935 68.6037 162.18 68.4448C161.426 68.2661 160.592 68.1172 159.678 67.998C158.785 67.8789 157.861 67.8193 156.908 67.8193C154.923 67.8193 153.066 68.0675 151.338 68.564C149.631 69.0405 148.032 69.6859 146.543 70.5C145.054 71.2943 143.664 72.2077 142.373 73.2402C141.102 74.2529 139.931 75.2954 138.858 76.3677V101H127.808V60.0752H138.858V66.7173C140.189 65.7244 141.549 64.7713 142.939 63.8579C144.349 62.9246 145.808 62.1006 147.317 61.3857C148.846 60.6709 150.455 60.105 152.143 59.688C153.83 59.2511 155.618 59.0327 157.504 59.0327C158.219 59.0327 158.944 59.0724 159.678 59.1519C160.433 59.2114 161.158 59.2909 161.853 59.3901C162.567 59.4894 163.233 59.5986 163.848 59.7178C164.464 59.8369 165 59.9561 165.457 60.0752V69.3384ZM172.486 101V60.0752H183.536V101H172.486Z" fill="#7F36DB"/>
<path d="M181.255 57H174.744C174.492 57.0007 174.248 56.9033 174.058 56.7258C173.868 56.5484 173.745 56.303 173.711 56.0355L173.006 50.469C172.988 50.3324 173.011 50.1932 173.07 50.0708C173.13 49.9484 173.223 49.8487 173.338 49.7854C173.452 49.7221 173.583 49.6983 173.71 49.7174C173.838 49.7364 173.957 49.7973 174.051 49.8917L175.216 51.043C175.277 51.1066 175.35 51.156 175.43 51.1881C175.511 51.2202 175.596 51.2344 175.681 51.2297C175.767 51.225 175.851 51.2016 175.927 51.1608C176.004 51.1201 176.072 51.063 176.127 50.993L177.519 49.2376C177.578 49.1632 177.651 49.1033 177.733 49.0623C177.816 49.0213 177.906 49 177.997 49C178.088 49 178.178 49.0213 178.26 49.0623C178.343 49.1033 178.416 49.1632 178.474 49.2376L179.873 50.993C179.927 51.0619 179.994 51.1183 180.07 51.1586C180.145 51.199 180.228 51.2225 180.312 51.2279C180.397 51.2332 180.481 51.2201 180.56 51.1895C180.64 51.1589 180.713 51.1113 180.775 51.0497L181.939 49.8984C182.032 49.8007 182.151 49.7368 182.28 49.7154C182.409 49.6941 182.541 49.7165 182.658 49.7795C182.774 49.8424 182.869 49.9428 182.929 50.0665C182.99 50.1902 183.012 50.3309 182.994 50.469L182.288 56.0322C182.256 56.3003 182.133 56.5464 181.943 56.7246C181.752 56.9027 181.508 57.0006 181.255 57Z" fill="#7F36DB"/>
</svg>
